<?xml version="1.0" encoding="UTF-8"?>
<svg version="1.1" xmlns="http://www.w3.org/2000/svg" width="902" height="721">
<path d="M0 0 C3.86725116 3.66893059 4.55102892 6.68315575 4.875 11.875 C4.36716224 30.94712902 -14.51369934 49.83443792 -27.51953125 62.46484375 C-29.89459405 64.6128451 -32.33652507 66.65656479 -34.8125 68.6875 C-35.7303125 69.450625 -36.648125 70.21375 -37.59375 71 C-39.71427324 72.651776 -41.69825284 74.04540785 -43.96875 75.4375 C-49.85891712 79.23396486 -49.85891712 79.23396486 -53.04882812 85.25683594 C-53.54842066 91.02318553 -52.53240817 96.64348141 -51.5625 102.3125 C-51.30855887 104.04798198 -51.05596176 105.78366114 -50.8046875 107.51953125 C-48.25145454 123.91357781 -43.89178403 140.11992148 -38.77734375 155.890625 C-33.75810036 171.59548577 -31.54218794 188.46629003 -37.5625 204.3125 C-38.5625 205.3125 -38.5625 205.3125 -41 205.5 C-43.5625 205.3125 -43.5625 205.3125 -45.5625 203.3125 C-45.75279565 199.50658694 -45.71092616 196.18762062 -45.07421875 192.43359375 C-43.13177016 180.58614015 -45.37908727 170.53419961 -48.70166016 159.24707031 C-49.69048588 155.87620102 -50.64889485 152.49734803 -51.60546875 149.1171875 C-53.29875877 143.14363659 -55.00843913 137.17501263 -56.72802734 131.20898438 C-57.67799619 127.91160859 -58.62170935 124.61250414 -59.5625 121.3125 C-59.954375 122.17875 -60.34625 123.045 -60.75 123.9375 C-70.42031751 141.94429812 -95.69029091 149.74154253 -114.03198242 155.46166992 C-122.01334551 157.85563569 -129.69354895 159.70677442 -138.0625 159.6875 C-138.80081055 159.68588867 -139.53912109 159.68427734 -140.29980469 159.68261719 C-146.09740684 159.55230528 -150.64975886 158.53196074 -155.5625 155.3125 C-156.490625 154.714375 -157.41875 154.11625 -158.375 153.5 C-162.99434722 148.88065278 -164.80336096 145.33630073 -164.8125 138.875 C-164.74899757 137.35320964 -164.67253792 135.83163466 -164.5625 134.3125 C-165.48546875 134.96734375 -166.4084375 135.6221875 -167.359375 136.296875 C-219.43506651 172.88345603 -219.43506651 172.88345603 -245.9453125 170.05859375 C-250.47160054 169.1034265 -253.99045973 167.20415165 -257.5625 164.3125 C-260.3310474 159.82193515 -260.25591567 155.43197314 -259.5625 150.3125 C-255.62441618 137.96297503 -245.65101741 129.26979803 -234.5625 123.3125 C-233.80710937 122.90128906 -233.05171875 122.49007812 -232.2734375 122.06640625 C-219.66931628 116.15416382 -204.12591412 116.09183133 -191.15234375 120.4609375 C-186.76046322 122.09489531 -182.53966101 123.77518329 -178.4296875 126.03515625 C-175.78526222 127.45251883 -175.78526222 127.45251883 -173.58984375 127.2890625 C-169.87844599 125.50129865 -166.67520192 122.88627525 -163.42773438 120.375 C-160.7473945 118.41087697 -159.15754418 117.29080133 -155.77734375 117.4140625 C-153.5625 118.3125 -153.5625 118.3125 -151.5625 120.3125 C-151.81399128 122.32443023 -152.17169203 124.32293215 -152.5625 126.3125 C-153.68552267 132.93070158 -154.08505366 137.44157724 -150.5625 143.3125 C-145.47086671 148.03157476 -142.1299852 148.73739303 -135.33203125 148.640625 C-116.32624069 146.98623494 -87.20191339 137.86174155 -73.9375 123.8125 C-71.59366831 120.78841831 -70.75138153 118.18457138 -70.5625 114.3125 C-77.11524947 108.76786583 -84.32724018 108.62705618 -92.5625 109.3125 C-95.7177983 109.96467038 -98.78048516 110.74798952 -101.87109375 111.65625 C-105.35337832 112.50534116 -108.28188666 113.080868 -111.4375 111.1875 C-112.5625 109.3125 -112.5625 109.3125 -112.47265625 106.359375 C-111.5625 103.3125 -111.5625 103.3125 -109.19140625 101.7734375 C-108.17949219 101.41507812 -107.16757812 101.05671875 -106.125 100.6875 C-105.02929688 100.27757812 -103.93359375 99.86765625 -102.8046875 99.4453125 C-101.73476563 99.07148438 -100.66484375 98.69765625 -99.5625 98.3125 C-91.15929725 95.33581689 -83.86527625 91.20210929 -76.38134766 86.41796875 C-74.72858965 85.41344684 -72.99692043 84.54175314 -71.26171875 83.6875 C-67.29604725 81.50244127 -64.30399771 79.64903697 -62.87744141 75.15380859 C-61.76625241 69.78147891 -61.31749275 64.34260816 -60.83398438 58.88476562 C-58.94238191 40.96217251 -49.30897916 20.9575649 -35.1640625 9.42578125 C-25.1208244 1.73799183 -12.68807982 -6.01014307 0 0 Z M-35.5625 23.3125 C-44.94727951 35.72564533 -50.55717706 49.80194091 -52.5625 65.3125 C-52.21907852 67.60727145 -52.21907852 67.60727145 -51.5625 69.3125 C-43.84952562 63.35712819 -36.64947868 56.98607159 -29.5625 50.3125 C-28.840625 49.64476562 -28.11875 48.97703125 -27.375 48.2890625 C-19.35644369 40.62616797 -6.23858084 27.12659101 -5.3515625 15.5625 C-5.31817285 13.34415453 -5.31817285 13.34415453 -6.5625 12.3125 C-18.55064403 11.12536236 -27.51925283 14.28499313 -35.5625 23.3125 Z M-70.6875 94.3125 C-71.25082031 94.6940625 -71.81414062 95.075625 -72.39453125 95.46875 C-73.78664841 96.41255824 -75.17494208 97.36200161 -76.5625 98.3125 C-74.44822613 100.42677387 -72.84599538 101.19992318 -70.125 102.375 C-69.34253906 102.71660156 -68.56007813 103.05820312 -67.75390625 103.41015625 C-66.04973094 104.1118755 -64.31091673 104.72969442 -62.5625 105.3125 C-62.2325 105.9725 -61.9025 106.6325 -61.5625 107.3125 C-61.44213336 101.53490116 -61.7304418 96.03290011 -62.5625 90.3125 C-65.87003423 90.3125 -68.00669573 92.48727156 -70.6875 94.3125 Z M-243.4375 142.3125 C-246.01729721 145.46225241 -248.18576474 148.44043209 -249.5625 152.3125 C-249.35814192 155.09897557 -249.35814192 155.09897557 -248.5625 157.3125 C-238.74943559 161.33837258 -228.74530602 159.28530943 -219.19824219 155.33398438 C-208.00775071 150.43099946 -196.06713846 145.12387514 -186.5625 137.3125 C-186.5625 136.3225 -186.5625 135.3325 -186.5625 134.3125 C-206.04967766 125.02000325 -228.08227306 125.54971059 -243.4375 142.3125 Z " fill="#000000" transform="translate(605.5625,288.6875)"/>
<path d="M0 0 C3.44018761 2.25477357 5.3198065 3.77844243 6.27734375 7.859375 C7.51241594 19.36800225 0.11188409 31.66274995 -5.6875 41.21875 C-6.72286818 43.97973182 -6.38601453 45.27980724 -5.37890625 48.0625 C-3.69090751 50.53873726 -1.76237254 52.78646437 0.18359375 55.0625 C7.90761332 64.39468593 13.77277919 74.4745002 19.62109375 85.0625 C38.01676455 71.67885435 38.01676455 71.67885435 55.99609375 57.75 C57.53572999 56.51829101 59.07715558 55.28881225 60.62109375 54.0625 C61.20761719 53.59328125 61.79414063 53.1240625 62.3984375 52.640625 C64.99193124 50.71365255 66.21774664 50.02742634 69.49609375 50.3125 C70.19734375 50.56 70.89859375 50.8075 71.62109375 51.0625 C72.62109375 54.125 72.62109375 54.125 72.62109375 58.0625 C71.046875 59.734375 71.046875 59.734375 68.93359375 61.375 C63.04891513 65.96340326 61.04129137 71.85887279 59.74609375 79.0625 C58.87038173 90.00890021 64.23506576 100.12673902 68.84375 109.69921875 C69.23876709 110.52172119 69.63378418 111.34422363 70.04077148 112.19165039 C70.82262259 113.81062221 71.61206215 115.42595961 72.41040039 117.03686523 C76.4032478 125.25396667 79.19606422 133.22697842 79.05859375 142.4375 C79.04723389 143.53312256 79.04723389 143.53312256 79.03564453 144.65087891 C78.49462849 162.63867496 67.8328786 176.44624667 55.24609375 188.3125 C45.78569966 196.50929137 36.95961528 199.75888544 24.62109375 199.0625 C19.32995451 197.94857595 19.32995451 197.94857595 17.12109375 195.1875 C16.4760267 192.44596502 17.29502989 191.46347926 18.62109375 189.0625 C19.66007812 189.12050781 20.6990625 189.17851563 21.76953125 189.23828125 C34.26649888 189.73521737 41.30542116 187.34509144 50.80859375 178.875 C59.96330972 170.29859837 67.55410394 159.53999006 68.859375 146.72265625 C69.22528976 133.9156395 64.28832007 124.11309877 58.34643555 113.16015625 C52.01886443 101.39801326 48.62109375 90.49606809 48.62109375 77.0625 C44.53406608 79.95646199 44.53406608 79.95646199 40.46777344 82.87939453 C37.38919739 85.1096966 34.30918813 87.28555336 31.08984375 89.30859375 C25.09273989 93.10726407 25.09273989 93.10726407 21.57421875 99.01171875 C21.2745243 101.07082632 21.04020451 103.14060938 20.875 105.21484375 C20.09195174 113.99703111 13.51435512 120.06028758 7.62109375 126.0625 C7.05003906 126.65804687 6.47898438 127.25359375 5.890625 127.8671875 C-4.96127563 138.24726636 -27.11739277 153.34820586 -42.5546875 153.015625 C-44.50390625 152.75 -44.50390625 152.75 -47.37890625 152.0625 C-45.52754012 136.89892979 -30.01196895 123.47345634 -18.5390625 114.484375 C-17.49621094 113.68515625 -16.45335937 112.8859375 -15.37890625 112.0625 C-13.89736544 110.90240948 -12.41699201 109.74082727 -10.9375 108.578125 C-4.17201114 103.27531432 2.58992164 98.01036185 9.62109375 93.0625 C9.11120891 88.05497426 7.42482779 84.40019488 4.80859375 80.1875 C4.22549438 79.23315063 4.22549438 79.23315063 3.63061523 78.25952148 C0.37783223 73.04758226 -3.1565645 68.05761336 -6.81640625 63.125 C-7.59624878 62.06853271 -7.59624878 62.06853271 -8.3918457 60.99072266 C-9.66872494 59.30713373 -11.01763245 57.67861445 -12.37890625 56.0625 C-13.03890625 56.0625 -13.69890625 56.0625 -14.37890625 56.0625 C-15.72126269 57.90052166 -15.72126269 57.90052166 -17.12890625 60.375 C-22.1630357 68.51999023 -27.93251745 76.10936155 -33.67480469 83.76367188 C-35.23541596 85.86893201 -36.75526209 87.99645277 -38.26171875 90.140625 C-39.11317079 91.32299622 -39.96472544 92.50529355 -40.81640625 93.6875 C-41.53699219 94.71101563 -42.25757813 95.73453125 -43 96.7890625 C-46.06865889 99.72167247 -48.19915337 99.94014189 -52.37890625 100.0625 C-54.31640625 99 -54.31640625 99 -55.37890625 97.0625 C-55.88843412 93.15242746 -55.69328567 91.51926369 -53.4296875 88.23046875 C-52.5296796 87.22541208 -51.61589101 86.23258895 -50.69140625 85.25 C-49.67471037 84.11003789 -48.66186294 82.96663495 -47.65234375 81.8203125 C-47.11706055 81.21477539 -46.58177734 80.60923828 -46.03027344 79.98535156 C-43.15539087 76.63783898 -40.48578737 73.13713495 -37.81640625 69.625 C-37.00453857 68.55813965 -37.00453857 68.55813965 -36.17626953 67.46972656 C-31.1060406 60.76526644 -26.20850303 53.94167736 -21.37890625 47.0625 C-22.80775905 43.98175397 -24.53897264 41.4062096 -26.56640625 38.6875 C-32.22970184 30.62087309 -38.66236635 21.43819927 -37.8046875 11.1796875 C-36.93905544 6.87535195 -35.36417983 4.10935317 -32.37890625 0.9375 C-21.57595958 -5.81434167 -11.23414352 -6.3527797 0 0 Z M-24.37890625 9.0625 C-25.92443018 12.15354786 -25.61685896 14.63668081 -25.37890625 18.0625 C-24.39076476 20.6244511 -23.40901803 22.85436225 -22.12890625 25.25 C-21.82855469 25.85263672 -21.52820313 26.45527344 -21.21875 27.07617188 C-19.37383794 30.65216099 -17.3806544 33.3861626 -14.37890625 36.0625 C-12.86042094 33.38406064 -11.36440883 30.69665558 -9.87890625 28 C-9.44964844 27.24783203 -9.02039063 26.49566406 -8.578125 25.72070312 C-5.99697356 20.98859216 -4.72845181 17.59485978 -5.37890625 12.0625 C-7.13905756 8.8774643 -7.87781541 8.22953028 -11.37890625 7.0625 C-12.8547724 6.94562662 -14.33597237 6.88748258 -15.81640625 6.875 C-16.95916016 6.85373047 -16.95916016 6.85373047 -18.125 6.83203125 C-20.65216545 7.09044158 -22.23315657 7.71845899 -24.37890625 9.0625 Z M7.41796875 106.51953125 C6.45286377 107.31447998 6.45286377 107.31447998 5.46826172 108.12548828 C4.77619629 108.70282715 4.08413086 109.28016602 3.37109375 109.875 C1.91091823 111.07774858 0.44996713 112.27955615 -1.01171875 113.48046875 C-1.74680664 114.08552246 -2.48189453 114.69057617 -3.23925781 115.31396484 C-6.29622702 117.81214073 -9.39367274 120.25615447 -12.50390625 122.6875 C-13.06255371 123.12465332 -13.62120117 123.56180664 -14.19677734 124.01220703 C-15.33076016 124.89897703 -16.46503874 125.78536893 -17.59960938 126.67138672 C-20.82266391 129.1912776 -24.03768862 131.72139317 -27.25390625 134.25 C-28.4387697 135.1810308 -29.62366238 136.1120244 -30.80859375 137.04296875 C-31.65679687 137.70941406 -32.505 138.37585938 -33.37890625 139.0625 C-32.71890625 139.3925 -32.05890625 139.7225 -31.37890625 140.0625 C-28.71150747 138.87800442 -26.1919366 137.63331582 -23.62890625 136.25 C-22.48796509 135.63692993 -22.48796509 135.63692993 -21.32397461 135.01147461 C-8.75498063 128.1085616 8.22639675 118.50221873 12.62109375 104.0625 C10.01886123 104.0625 9.40165645 104.86991179 7.41796875 106.51953125 Z " fill="#000000" transform="translate(244.37890625,341.9375)"/>
<path d="M0 0 C5.875 1.875 5.875 1.875 7 3 C7.09326716 4.56547048 7.11745582 6.13512772 7.11352539 7.70336914 C7.11344986 8.70433121 7.11337433 9.70529327 7.11329651 10.73658752 C7.10813522 11.8251152 7.10297394 12.91364288 7.09765625 14.03515625 C7.0962413 15.14354355 7.09482635 16.25193085 7.09336853 17.39390564 C7.08775033 20.95013069 7.07519475 24.50629383 7.0625 28.0625 C7.05748734 30.46679597 7.05292403 32.87109292 7.04882812 35.27539062 C7.03777499 41.18361504 7.02101917 47.0918031 7 53 C7.31656555 52.32014038 7.6331311 51.64028076 7.95928955 50.93981934 C26.65425557 10.84208995 26.65425557 10.84208995 37 5 C40.08241443 3.99075786 42.78588784 3.44075678 46 4 C50.86764867 6.90729059 51.53280465 10.52069139 53.01757812 15.76660156 C54.97837978 23.76298071 56.0587451 31.95261205 57.26269531 40.08905029 C58.10535446 45.77119464 58.98529812 51.44761951 59.859375 57.125 C60.12590881 58.8643129 60.12590881 58.8643129 60.39782715 60.63876343 C70.39319408 133.15743311 70.39319408 133.15743311 93.375 202.25 C94.76989845 205.28595546 95.79565798 207.6184536 95 211 C93.3125 212.9375 93.3125 212.9375 91 214 C87.83264088 213.19882616 86.38072462 212.57984593 84.56738281 209.81811523 C84.0158252 208.4830896 84.0158252 208.4830896 83.453125 207.12109375 C82.8334082 205.63198486 82.8334082 205.63198486 82.20117188 204.11279297 C63.75707486 156.31559033 55.96201998 104.94319327 48.09375 54.57495117 C46.46226741 34.16069894 46.46226741 34.16069894 38 17 C25.44107926 36.67678318 16.05423427 57.53918172 7 79 C6.60474121 79.92071289 6.20948242 80.84142578 5.80224609 81.79003906 C1.23178522 92.54068289 -1.30622513 103.47387449 -3.66687012 114.89120483 C-6.15076806 126.85964827 -9.24725219 138.58438247 -12.6875 150.3125 C-12.92174683 151.12966492 -13.15599365 151.94682983 -13.39733887 152.78875732 C-14.06561585 155.11024858 -14.75378206 157.42480061 -15.44921875 159.73828125 C-15.74583656 160.77667397 -15.74583656 160.77667397 -16.04844666 161.83604431 C-16.96391506 164.79404706 -17.78994327 166.78896471 -19.99145508 169.00073242 C-22 170 -22 170 -24.6875 169.25 C-27 168 -27 168 -28 167 C-28.26368286 160.6214606 -27.66897569 154.82868756 -26.37109375 148.59375 C-26.1941246 147.72778198 -26.01715546 146.86181396 -25.83482361 145.96960449 C-24.07644007 137.74027038 -21.5306363 129.84894161 -18.85418701 121.88168335 C-12.60858448 103.09263246 -9.11416677 84.62724701 -7.19281006 64.95526123 C-7.01110551 63.1126195 -6.81580745 61.27133278 -6.61962891 59.43017578 C-5.53411685 49.09737271 -4.92153264 38.85298776 -5.0625 28.46484375 C-5.07070267 27.73554657 -5.07890533 27.00624939 -5.08735657 26.25485229 C-5.13154767 22.66516317 -5.20646991 19.08078023 -5.33666992 15.49316406 C-5.36349854 14.19991211 -5.39032715 12.90666016 -5.41796875 11.57421875 C-5.45688232 10.42526123 -5.4957959 9.27630371 -5.53588867 8.0925293 C-4.83649826 4.05645718 -3.07056175 2.59299288 0 0 Z M5 55 C6 57 6 57 6 57 Z " fill="#000000" transform="translate(100,297)"/>
<path d="M0 0 C2 2 2 2 2 4.875 C0.71421241 8.89308621 -1.42599668 10.11347995 -5 12 C-7.99122637 13.25395161 -11.04003029 14.27187473 -14.125 15.26953125 C-14.99012207 15.55479172 -15.85524414 15.84005219 -16.74658203 16.13395691 C-18.56715369 16.73095735 -20.38929535 17.32318896 -22.21289062 17.91088867 C-24.9966188 18.8114062 -27.77163748 19.73580266 -30.546875 20.66210938 C-32.32243982 21.24104785 -34.09846703 21.81857051 -35.875 22.39453125 C-36.70016113 22.67150345 -37.52532227 22.94847565 -38.37548828 23.23384094 C-42.95116345 24.6834754 -46.2408547 25.38671332 -51 24 C-53.32039251 22.39972931 -53.89969741 21.27224989 -54.875 18.625 C-55.04447024 15.06612487 -54.21012515 13.78458228 -52 11 C-49.46202065 9.97184048 -47.26579871 9.2928246 -44.625 8.6875 C-43.01900367 8.2859584 -41.41357599 7.88213847 -39.80859375 7.4765625 C-38.9047998 7.25258789 -38.00100586 7.02861328 -37.06982422 6.79785156 C-33.53723224 5.87972602 -30.03685915 4.86389475 -26.53515625 3.8359375 C-24.57225075 3.26688468 -22.60892064 2.69932105 -20.64544678 2.13223267 C-19.3443035 1.75361981 -18.04451348 1.37032371 -16.74615479 0.98226929 C-14.90151878 0.43301378 -13.05043099 -0.09442796 -11.19921875 -0.62109375 C-10.12502686 -0.9348999 -9.05083496 -1.24870605 -7.9440918 -1.57202148 C-4.55297753 -2.06498303 -2.98486323 -1.61570174 0 0 Z " fill="#000000" transform="translate(152,406)"/>
<path d="M0 0 C2.02025736 1.44304097 2.83041246 2.63659813 3.875 4.875 C4.06531889 8.1104211 3.05487003 9.54741319 1 12 C-2.35232517 13.14121708 -4.09557116 13.38081215 -7.375 12 C-9 10 -9 10 -9.5 6.5 C-9 3 -9 3 -7.3125 1.0625 C-4.58181113 -0.19214083 -2.97067849 -0.45702746 0 0 Z " fill="#000000" transform="translate(331,317)"/>
</svg>
